<svg width="44" height="44" viewBox="0 0 44 44" fill="none" xmlns="http://www.w3.org/2000/svg">
<g clip-path="url(#clip0_1_151)">
<path d="M5.5 5.5L38.5 38.5" stroke="black" stroke-width="2.75" stroke-linecap="round" stroke-linejoin="round"/>
<path d="M19.4041 19.4095C18.716 20.097 18.3293 21.0297 18.329 22.0024C18.3286 22.975 18.7147 23.908 19.4022 24.596C20.0898 25.284 21.0224 25.6707 21.9951 25.6711C22.9677 25.6714 23.9007 25.2853 24.5887 24.5978" stroke="black" stroke-width="2.75" stroke-linecap="round" stroke-linejoin="round"/>
<path d="M17.1655 9.83584C18.7374 9.38616 20.365 9.16088 22 9.16667C29.3333 9.16667 35.4438 13.4438 40.3333 22C38.907 24.4952 37.378 26.6273 35.7445 28.3947M31.8211 31.8065C28.831 33.8232 25.5603 34.8333 22 34.8333C14.6666 34.8333 8.55613 30.5562 3.66663 22C6.17646 17.6092 9.00713 14.3458 12.1586 12.2082" stroke="black" stroke-width="2.75" stroke-linecap="round" stroke-linejoin="round"/>
</g>
<defs>
<clipPath id="clip0_1_151">
<rect width="44" height="44" fill="white"/>
</clipPath>
</defs>
</svg>
